PathFileType	4	(X/Y/Z)	/tmp/tmpjnq7zxqp/Me/MarkerData/slow walking_segment_0.trc
DataRate	CameraRate	NumFrames	NumMarkers	Units	OrigDataRate	OrigDataStartFrame	OrigNumFrames
100.092	100.092	10	38	m	100.092	950	1086
Frame#	Time	C7			CLAV			LANK			LASI			LBHD			LELB			LFHD			LFIN			LFRM			LHEE			LKNE			LPSI			LSHO			LTHI			LTIB			LTOE			LUPA			LWRA			LWRB			RANK			RBAK			RBHD			RELB			RFHD			RFIN			RFRM			RHEE			RKNE			RPSI			RSHO			RTHI			RTIB			RTOE			RUPA			RWRA			RWRB			STRN			T10		
		X1	Y1	Z1	X2	Y2	Z2	X3	Y3	Z3	X4	Y4	Z4	X5	Y5	Z5	X6	Y6	Z6	X7	Y7	Z7	X8	Y8	Z8	X9	Y9	Z9	X10	Y10	Z10	X11	Y11	Z11	X12	Y12	Z12	X13	Y13	Z13	X14	Y14	Z14	X15	Y15	Z15	X16	Y16	Z16	X17	Y17	Z17	X18	Y18	Z18	X19	Y19	Z19	X20	Y20	Z20	X21	Y21	Z21	X22	Y22	Z22	X23	Y23	Z23	X24	Y24	Z24	X25	Y25	Z25	X26	Y26	Z26	X27	Y27	Z27	X28	Y28	Z28	X29	Y29	Z29	X30	Y30	Z30	X31	Y31	Z31	X32	Y32	Z32	X33	Y33	Z33	X34	Y34	Z34	X35	Y35	Z35	X36	Y36	Z36	X37	Y37	Z37	X38	Y38	Z38

951	9.49125	-0.0214791	1.43613	0.0590594	-0.183326	1.35701	0.0301893	0.206494	0.126416	0.17838	-0.136388	0.963835	0.202879	-0.152757	1.58108	0.125131	-0.242887	1.08646	0.324622	-0.231763	1.64796	0.0426812	-0.472215	0.845629	0.298725	-0.316167	0.945054	0.311983	0.290765	0.111744	0.124888	-0.0226989	0.459662	0.195396	0.00745491	0.98124	0.0749053	-0.124595	1.41682	0.21705	-0.0767605	0.642745	0.219806	0.130464	0.262921	0.204997	0.0670494	0.0633163	0.105232	-0.192478	1.26122	0.300329	-0.410747	0.915018	0.251968	-0.380835	0.881268	0.308957	-0.311075	0.0964252	-0.105499	0.0509335	1.30043	-0.044577	-0.0622469	1.5701	0.00668564	-0.000739703	1.07785	-0.20943	-0.15133	1.62825	-0.0571971	0.00647286	0.730495	-0.24543	0.0154398	0.990877	-0.21801	-0.241953	0.0565847	-0.0395554	-0.26332	0.498207	-0.106401	0.0108723	0.975446	0.0113249	-0.069033	1.41479	-0.125373	-0.191535	0.816069	-0.142408	-0.248054	0.370685	-0.13618	-0.475256	0.0730304	-0.0569108	-0.0338655	1.17061	-0.201942	-0.0247688	0.823807	-0.187012	0.0342532	0.82366	-0.22993	-0.220331	1.19879	0.0337181	0.0241578	1.20586	0.0747688
952	9.50124	-0.0224908	1.43649	0.0557678	-0.184622	1.35776	0.0280328	0.209895	0.130568	0.178667	-0.138079	0.964161	0.200678	-0.153364	1.58194	0.122213	-0.239855	1.08592	0.321618	-0.232232	1.64885	0.0397662	-0.465063	0.840934	0.294728	-0.310927	0.943379	0.30913	0.294807	0.118329	0.124996	-0.0266063	0.459525	0.194888	0.00507815	0.98144	0.0718984	-0.124552	1.41753	0.214518	-0.0798883	0.643032	0.218229	0.131391	0.266074	0.204188	0.0750566	0.0630289	0.105286	-0.191244	1.2613	0.297792	-0.404381	0.911307	0.248677	-0.374612	0.878734	0.306116	-0.30539	0.0957759	-0.106105	0.0488732	1.30035	-0.0481882	-0.063063	1.57046	0.00367626	-0.00507903	1.07736	-0.211805	-0.152063	1.62874	-0.0601586	-0.000157939	0.729843	-0.246638	0.0105441	0.990261	-0.220283	-0.235219	0.0572703	-0.0398731	-0.26542	0.498397	-0.107966	0.00830099	0.975953	0.00825839	-0.0711891	1.41496	-0.128329	-0.1948	0.816493	-0.143937	-0.249243	0.370649	-0.137957	-0.469633	0.0694009	-0.0576791	-0.0376945	1.17034	-0.204438	-0.0305229	0.82354	-0.188458	0.0282367	0.822882	-0.231653	-0.222262	1.1997	0.0318608	0.0221751	1.20595	0.0714102
953	9.51123	-0.0234684	1.43703	0.052468	-0.185893	1.35866	0.0259208	0.212542	0.135021	0.178836	-0.139845	0.964653	0.198441	-0.153977	1.58294	0.119358	-0.23644	1.08546	0.318574	-0.232944	1.64996	0.0368994	-0.457308	0.836142	0.291018	-0.305217	0.941732	0.306297	0.297958	0.125566	0.124854	-0.0315172	0.459312	0.194508	0.00262886	0.981827	0.0689794	-0.124515	1.41841	0.211988	-0.0836588	0.643316	0.216632	0.131457	0.269368	0.20368	0.0828463	0.0627273	0.105391	-0.189845	1.2615	0.295382	-0.397613	0.907578	0.24561	-0.367798	0.876166	0.303421	-0.299138	0.0953039	-0.106458	0.0467454	1.30042	-0.0519391	-0.0639004	1.57098	0.000677351	-0.00974402	1.07701	-0.214203	-0.152843	1.62938	-0.0631047	-0.00739869	0.729374	-0.247945	0.00525687	0.989805	-0.22257	-0.228272	0.0576086	-0.0400727	-0.267353	0.498668	-0.109723	0.00577558	0.976668	0.00530056	-0.0734059	1.41528	-0.131277	-0.197731	0.817019	-0.145604	-0.25015	0.370656	-0.139677	-0.463549	0.0667566	-0.0579299	-0.0418189	1.17025	-0.206997	-0.0366986	0.823464	-0.189878	0.0217536	0.822275	-0.233507	-0.224239	1.20075	0.029947	0.0203083	1.20623	0.0679023
954	9.52122	-0.0243791	1.43772	0.0491724	-0.187142	1.35969	0.0238307	0.214468	0.139829	0.178756	-0.141616	0.965302	0.196141	-0.154635	1.58409	0.116457	-0.232653	1.08502	0.315576	-0.233575	1.65111	0.0340525	-0.448927	0.831297	0.287621	-0.299008	0.940143	0.303522	0.30019	0.133684	0.124518	-0.0375095	0.459028	0.194385	0.00018352	0.98239	0.0661119	-0.124368	1.41939	0.209454	-0.0880834	0.64365	0.215052	0.130592	0.272785	0.20346	0.0904945	0.0623143	0.105525	-0.188208	1.26179	0.292992	-0.390469	0.903956	0.242746	-0.36045	0.873576	0.300933	-0.292166	0.0949389	-0.106504	0.044603	1.30069	-0.0557856	-0.0647449	1.57164	-0.0022533	-0.0147475	1.07678	-0.216666	-0.153684	1.63013	-0.0660264	-0.0152194	0.7291	-0.24931	-0.000432722	0.989493	-0.224941	-0.220773	0.0579718	-0.0400413	-0.268831	0.498989	-0.111488	0.00331739	0.977563	0.0024315	-0.0756494	1.41578	-0.134185	-0.200293	0.817719	-0.147458	-0.250427	0.370697	-0.141162	-0.456835	0.065171	-0.0576744	-0.0462213	1.17034	-0.209591	-0.0432984	0.82359	-0.191264	0.0147878	0.821841	-0.235499	-0.226261	1.20194	0.0280116	0.0186249	1.2067	0.0642801
955	9.53122	-0.0252625	1.43857	0.0458357	-0.188371	1.36088	0.021776	0.215427	0.145007	0.178572	-0.14334	0.966068	0.193736	-0.155289	1.58538	0.113702	-0.228481	1.08462	0.312603	-0.234065	1.65227	0.0312293	-0.439886	0.826437	0.284529	-0.292325	0.938624	0.300771	0.30117	0.142698	0.124016	-0.0445643	0.458687	0.194555	-0.00211189	0.983125	0.0633623	-0.124182	1.42054	0.206999	-0.0930813	0.644027	0.213479	0.128671	0.276368	0.202996	0.0979569	0.0618177	0.105663	-0.186358	1.26217	0.290641	-0.382924	0.900442	0.240077	-0.352596	0.87097	0.298578	-0.28474	0.0946934	-0.106184	0.0424559	1.30118	-0.0597397	-0.0656536	1.57254	-0.00517797	-0.0200565	1.07675	-0.219264	-0.15458	1.63103	-0.0688964	-0.0235968	0.729026	-0.250734	-0.00653357	0.989347	-0.227382	-0.213186	0.05823	-0.0399923	-0.269777	0.499359	-0.113101	0.000985024	0.978556	-0.00030865	-0.0780115	1.41654	-0.137135	-0.202546	0.818699	-0.149485	-0.249882	0.370787	-0.142385	-0.44966	0.0642609	-0.05738	-0.0508707	1.17062	-0.212207	-0.0503978	0.823916	-0.192759	0.00722606	0.821554	-0.237532	-0.228262	1.20327	0.0260911	0.0171592	1.20736	0.0605104
956	9.54121	-0.0261084	1.43957	0.0425029	-0.189555	1.36225	0.0197969	0.215266	0.150591	0.178295	-0.145	0.966946	0.191256	-0.155901	1.58682	0.110946	-0.223929	1.08425	0.309615	-0.234787	1.6536	0.0284855	-0.430249	0.821579	0.281785	-0.285133	0.937148	0.298033	0.300788	0.15266	0.12337	-0.0525144	0.458249	0.195033	-0.00422467	0.983978	0.0607713	-0.123794	1.42176	0.204593	-0.0986872	0.644434	0.212074	0.125651	0.280041	0.202292	0.104933	0.061467	0.105825	-0.184285	1.26262	0.288309	-0.375048	0.897035	0.237613	-0.344228	0.868341	0.296265	-0.277335	0.0946648	-0.105985	0.0403281	1.30192	-0.063805	-0.0665312	1.57365	-0.00808773	-0.0256235	1.07691	-0.222029	-0.155505	1.63209	-0.0717247	-0.0325486	0.729196	-0.252236	-0.0130428	0.989398	-0.22991	-0.205771	0.0581416	-0.0401112	-0.270042	0.499703	-0.114641	-0.00116186	0.979617	-0.00287571	-0.0803808	1.41749	-0.140051	-0.204559	0.819937	-0.151582	-0.24849	0.370925	-0.143398	-0.442328	0.0635846	-0.0573158	-0.0557528	1.1711	-0.21482	-0.0579521	0.824507	-0.194237	-0.000818633	0.821483	-0.239636	-0.230161	1.20475	0.0242105	0.0158451	1.20822	0.0566156
957	9.5512	-0.0269172	1.44069	0.0392124	-0.190601	1.36374	0.0178848	0.214059	0.156668	0.17789	-0.14656	0.967927	0.188747	-0.156494	1.58833	0.10827	-0.219033	1.08392	0.306503	-0.23571	1.65507	0.0258717	-0.420036	0.81676	0.279436	-0.277368	0.935774	0.2953	0.299088	0.163538	0.122532	-0.0612216	0.457688	0.195957	-0.00612075	0.984881	0.0583599	-0.12317	1.42298	0.202189	-0.104719	0.644846	0.210815	0.121691	0.283848	0.201924	0.111155	0.0613604	0.106011	-0.181995	1.26316	0.286032	-0.366786	0.893711	0.235377	-0.335267	0.865741	0.293973	-0.269879	0.0948366	-0.105863	0.038261	1.30292	-0.0679194	-0.0673784	1.57492	-0.0109651	-0.0315616	1.07729	-0.224689	-0.15647	1.63325	-0.0745026	-0.0420988	0.729641	-0.253818	-0.0198894	0.989642	-0.232465	-0.198169	0.0581155	-0.0402246	-0.26959	0.500024	-0.116236	-0.00312369	0.980712	-0.00527191	-0.0828296	1.41865	-0.142939	-0.206354	0.821284	-0.153685	-0.246252	0.371052	-0.14427	-0.434853	0.0630325	-0.0574504	-0.0608517	1.17181	-0.217435	-0.0659265	0.82535	-0.19576	-0.00941763	0.821656	-0.241855	-0.23194	1.2064	0.0223585	0.0146252	1.20926	0.0526474
958	9.56119	-0.0277503	1.44186	0.0359435	-0.191509	1.3653	0.0160336	0.212029	0.163266	0.177312	-0.148007	0.968959	0.186243	-0.157067	1.5898	0.105608	-0.213828	1.08369	0.3033	-0.236519	1.65643	0.0233514	-0.409259	0.812011	0.277505	-0.269003	0.934532	0.292584	0.296165	0.175319	0.121434	-0.0707419	0.457074	0.197103	-0.00766721	0.98584	0.0561257	-0.122506	1.42428	0.19977	-0.111052	0.64524	0.209577	0.116993	0.287764	0.20206	0.116407	0.0616475	0.106166	-0.179498	1.26383	0.28382	-0.358137	0.890473	0.233358	-0.325566	0.863275	0.291738	-0.262266	0.0950658	-0.105728	0.0362184	1.30415	-0.0720816	-0.0681913	1.57624	-0.0137223	-0.0378438	1.07789	-0.227304	-0.157438	1.63444	-0.0772033	-0.0521972	0.730363	-0.255459	-0.0270668	0.990072	-0.235022	-0.190369	0.0581692	-0.0403199	-0.268378	0.500275	-0.117923	-0.00491296	0.981805	-0.00753387	-0.0852157	1.41995	-0.145693	-0.207934	0.822554	-0.155841	-0.243104	0.371076	-0.14509	-0.427239	0.0626298	-0.0576228	-0.0661644	1.17276	-0.220048	-0.0742864	0.826446	-0.19733	-0.0185675	0.82206	-0.244174	-0.233585	1.20819	0.0205522	0.0134557	1.21042	0.0486374
959	9.57118	-0.0285153	1.44299	0.032758	-0.192373	1.36686	0.0142386	0.209302	0.170405	0.176576	-0.149257	0.969985	0.183738	-0.15758	1.59119	0.103141	-0.208351	1.08365	0.300245	-0.237188	1.65761	0.0209377	-0.397884	0.807442	0.27593	-0.260316	0.933359	0.289702	0.292089	0.18783	0.120071	-0.0810257	0.456419	0.197988	-0.00890522	0.986762	0.0540248	-0.121942	1.42574	0.197347	-0.118027	0.645479	0.208759	0.111248	0.291749	0.201656	0.120426	0.0625924	0.106198	-0.176801	1.26459	0.281665	-0.34912	0.887326	0.231499	-0.315165	0.860973	0.289548	-0.254446	0.0948765	-0.105758	0.0341527	1.30552	-0.0762903	-0.0689729	1.57757	-0.0164162	-0.0443374	1.07876	-0.230161	-0.158405	1.63559	-0.0797464	-0.0627929	0.731326	-0.257135	-0.0345428	0.990834	-0.237787	-0.182469	0.0582407	-0.0403478	-0.266315	0.500321	-0.119601	-0.0065385	0.982837	-0.00969049	-0.08765	1.42141	-0.148363	-0.209247	0.823572	-0.158125	-0.239012	0.370988	-0.145866	-0.419447	0.0622683	-0.0575918	-0.0716268	1.17392	-0.222648	-0.0829984	0.827755	-0.198919	-0.0281678	0.82268	-0.246561	-0.235086	1.21005	0.0188054	0.0123077	1.21164	0.0445896
960	9.58117	-0.02921	1.44408	0.0296109	-0.193152	1.36832	0.0125276	0.205906	0.178099	0.175589	-0.1502	0.97101	0.181313	-0.158048	1.5925	0.100859	-0.202644	1.08367	0.29714	-0.237828	1.65873	0.0186914	-0.385917	0.803086	0.274628	-0.251321	0.932304	0.286697	0.2868	0.200803	0.118462	-0.0918663	0.455733	0.198509	-0.0103703	0.98744	0.0519635	-0.121276	1.42719	0.194909	-0.12511	0.645663	0.207914	0.1047	0.295976	0.200701	0.123013	0.0643796	0.10598	-0.173925	1.26542	0.279573	-0.339769	0.884281	0.229765	-0.304285	0.858671	0.28727	-0.246604	0.0947629	-0.105692	0.0320986	1.30694	-0.0805382	-0.0697724	1.57885	-0.0189947	-0.0510245	1.0798	-0.233055	-0.159364	1.63672	-0.0821489	-0.0738821	0.732491	-0.258832	-0.0423063	0.991739	-0.240571	-0.174466	0.0583935	-0.0402844	-0.263445	0.500061	-0.121134	-0.00790125	0.983575	-0.011671	-0.0901879	1.42298	-0.15097	-0.210202	0.824229	-0.160594	-0.234201	0.370801	-0.146627	-0.411659	0.0618982	-0.0575254	-0.0772593	1.17521	-0.22527	-0.092017	0.829269	-0.200537	-0.0379277	0.823474	-0.248996	-0.236414	1.21188	0.0171135	0.0111648	1.21288	0.0405103
